<?xml version="1.0" standalone="no"?>
<!DOCTYPE svg PUBLIC "-//W3C//DTD SVG 20010904//EN"
 "http://www.w3.org/TR/2001/REC-SVG-20010904/DTD/svg10.dtd">
<svg version="1.0" xmlns="http://www.w3.org/2000/svg"
 width="1604.000000pt" height="1604.000000pt" viewBox="0 0 1604.000000 1604.000000"
 preserveAspectRatio="xMidYMid meet">
<metadata>
Created by potrace 1.14, written by Peter Selinger 2001-2017
</metadata>
<g transform="translate(0.000000,1604.000000) scale(0.100000,-0.100000)"
fill="#000000" stroke="none">
<path d="M1350 8020 l0 -8000 835 0 835 0 0 888 0 889 833 -1 832 -1 0 -887 0
-888 3335 0 3335 0 0 888 0 889 832 0 833 0 0 -889 0 -888 835 0 835 0 0 8000
0 8000 -835 0 -835 0 0 -888 0 -889 -832 1 -833 1 0 885 0 885 -3335 3 -3335
2 0 -887 0 -888 -832 -1 -833 -1 0 889 0 888 -835 0 -835 0 0 -8000z m3300
4441 l35 -1 -1 -882 c-1 -486 -2 -885 -3 -888 -1 -4 -1395 -4 -1638 0 l-23 0
0 884 c0 820 1 885 17 888 14 2 1497 2 1613 -1z m8348 0 l22 -1 0 -885 0 -885
-47 -1 c-62 0 -1572 0 -1598 0 -20 1 -20 7 -20 884 -1 485 2 884 6 887 5 4
1527 5 1637 1z m-8328 -3556 c13 -4 15 -110 15 -887 l0 -883 -833 -1 -832 -1
0 887 0 888 818 0 c449 1 824 -1 832 -3z m8350 -885 l0 -888 -832 2 -833 1 0
886 0 887 833 0 832 0 0 -888z m-8380 -2669 l45 -1 0 -879 c0 -484 -3 -883 -7
-887 -6 -5 -1550 -10 -1645 -5 -10 1 -13 185 -13 885 l0 885 28 3 c21 2 1409
1 1592 -1z m8328 0 l52 -1 0 -885 c0 -836 -1 -885 -17 -886 -21 -1 -1585 0
-1623 0 l-25 1 0 882 c0 822 1 881 17 887 13 5 1261 6 1596 2z"/>
</g>
</svg>
